<svg width="633" height="494" viewBox="0 0 633 494" fill="none" xmlns="http://www.w3.org/2000/svg">
<g filter="url(#filter0_d_325_262)">
<g clip-path="url(#clip0_325_262)">
<mask id="path-1-inside-1_325_262" fill="white">
<path d="M38.0095 47.4258C37.7011 38.5946 44.6103 31.1856 53.4414 30.8772L565.13 13.0104C573.961 12.702 581.37 19.6111 581.678 28.4423L594.52 396.218C594.828 405.049 587.919 412.458 579.088 412.767L67.3999 430.634C58.5687 430.942 51.1597 424.033 50.8513 415.202L38.0095 47.4258Z"/>
</mask>
<path d="M38.0095 47.4258C37.7011 38.5946 44.6103 31.1856 53.4414 30.8772L565.13 13.0104C573.961 12.702 581.37 19.6111 581.678 28.4423L594.52 396.218C594.828 405.049 587.919 412.458 579.088 412.767L67.3999 430.634C58.5687 430.942 51.1597 424.033 50.8513 415.202L38.0095 47.4258Z" fill="#0F172A" fill-opacity="0.9" shape-rendering="crispEdges"/>
<mask id="path-3-inside-2_325_262" fill="white">
<path d="M38.4854 32.4004L580.155 13.4867L581.83 61.4574L40.1604 80.3712L38.4854 32.4004Z"/>
</mask>
<path d="M38.4854 32.4004L580.155 13.4867L581.83 61.4574L40.1604 80.3712L38.4854 32.4004Z" fill="white" fill-opacity="0.05"/>
<path d="M581.83 61.4574L581.795 60.458L40.1255 79.3718L40.1604 80.3712L40.1953 81.3705L581.865 62.4568L581.83 61.4574Z" fill="white" fill-opacity="0.1" mask="url(#path-3-inside-2_325_262)"/>
<path d="M55.2953 55.3284C55.1797 52.0167 57.7706 49.2383 61.0823 49.1227V49.1227C64.394 49.007 67.1724 51.5979 67.288 54.9096V54.9096C67.4036 58.2213 64.8127 60.9997 61.501 61.1153V61.1153C58.1893 61.231 55.411 58.6401 55.2953 55.3284V55.3284Z" fill="#FF5F56"/>
<path d="M75.2836 54.6292C75.168 51.3175 77.7589 48.5391 81.0706 48.4234V48.4234C84.3823 48.3078 87.1607 50.8987 87.2763 54.2104V54.2104C87.3919 57.5221 84.801 60.3005 81.4893 60.4161V60.4161C78.1776 60.5318 75.3992 57.9408 75.2836 54.6292V54.6292Z" fill="#FFBD2E"/>
<path d="M95.2709 53.9319C95.1553 50.6202 97.7462 47.8418 101.058 47.7262V47.7262C104.37 47.6105 107.148 50.2014 107.264 53.5131V53.5131C107.379 56.8248 104.788 59.6032 101.477 59.7189V59.7189C98.1649 59.8345 95.3865 57.2436 95.2709 53.9319V53.9319Z" fill="#27C93F"/>
<mask id="path-8-inside-3_325_262" fill="white">
<path d="M65.4022 115.512C65.1709 108.889 70.3527 103.332 76.9761 103.101L100.961 102.263C107.585 102.032 113.142 107.214 113.373 113.837L114.21 137.823C114.442 144.446 109.26 150.003 102.636 150.234L78.6511 151.072C72.0277 151.303 66.4709 146.121 66.2397 139.498L65.4022 115.512Z"/>
</mask>
<path d="M65.4022 115.512C65.1709 108.889 70.3527 103.332 76.9761 103.101L100.961 102.263C107.585 102.032 113.142 107.214 113.373 113.837L114.21 137.823C114.442 144.446 109.26 150.003 102.636 150.234L78.6511 151.072C72.0277 151.303 66.4709 146.121 66.2397 139.498L65.4022 115.512Z" fill="#432DD7" fill-opacity="0.2"/>
<path d="M76.9761 103.101L77.011 104.1L100.996 103.263L100.961 102.263L100.927 101.264L76.9412 102.101L76.9761 103.101ZM113.373 113.837L112.374 113.872L113.211 137.857L114.21 137.823L115.21 137.788L114.372 113.802L113.373 113.837ZM102.636 150.234L102.602 149.235L78.6162 150.072L78.6511 151.072L78.686 152.071L102.671 151.233L102.636 150.234ZM66.2397 139.498L67.2391 139.463L66.4015 115.477L65.4022 115.512L64.4028 115.547L65.2403 139.533L66.2397 139.498ZM78.6511 151.072L78.6162 150.072C72.5448 150.284 67.4511 145.534 67.2391 139.463L66.2397 139.498L65.2403 139.533C65.4908 146.708 71.5107 152.321 78.686 152.071L78.6511 151.072ZM114.21 137.823L113.211 137.857C113.423 143.929 108.673 149.023 102.602 149.235L102.636 150.234L102.671 151.233C109.847 150.983 115.46 144.963 115.21 137.788L114.21 137.823ZM100.961 102.263L100.996 103.263C107.068 103.051 112.162 107.801 112.374 113.872L113.373 113.837L114.372 113.802C114.122 106.627 108.102 101.013 100.927 101.264L100.961 102.263ZM76.9761 103.101L76.9412 102.101C69.7659 102.352 64.1522 108.372 64.4028 115.547L65.4022 115.512L66.4015 115.477C66.1895 109.406 70.9396 104.312 77.011 104.1L76.9761 103.101Z" fill="#432DD7" fill-opacity="0.3" mask="url(#path-8-inside-3_325_262)"/>
<path d="M94.0125 132.524L99.7995 126.318L93.5938 120.531" stroke="#8C7DFF" stroke-width="2" stroke-linecap="round" stroke-linejoin="round"/>
<path d="M85.5989 120.81L79.8119 127.016L86.0176 132.803" stroke="#8C7DFF" stroke-width="2" stroke-linecap="round" stroke-linejoin="round"/>
<path d="M129.293 111.281C129.216 109.073 130.943 107.221 133.151 107.144L253.078 102.956C255.286 102.879 257.138 104.606 257.215 106.814L257.494 114.809C257.571 117.017 255.844 118.869 253.636 118.946L133.709 123.134C131.501 123.211 129.649 121.484 129.572 119.276L129.293 111.281Z" fill="white" fill-opacity="0.2"/>
<path d="M130.131 135.267C130.054 133.059 131.781 131.207 133.989 131.13L221.935 128.059C224.143 127.982 225.995 129.709 226.072 131.917L226.212 135.915C226.289 138.122 224.562 139.975 222.354 140.052L134.408 143.123C132.2 143.2 130.347 141.472 130.27 139.265L130.131 135.267Z" fill="white" fill-opacity="0.1"/>
<mask id="path-14-inside-4_325_262" fill="white">
<path d="M463.3 105.622C463.145 101.206 466.6 97.502 471.016 97.3478L550.967 94.5561C555.383 94.4019 559.087 97.8565 559.241 102.272L559.8 118.262C559.954 122.678 556.499 126.382 552.084 126.537L472.132 129.328C467.717 129.482 464.012 126.028 463.858 121.612L463.3 105.622Z"/>
</mask>
<path d="M463.3 105.622C463.145 101.206 466.6 97.502 471.016 97.3478L550.967 94.5561C555.383 94.4019 559.087 97.8565 559.241 102.272L559.8 118.262C559.954 122.678 556.499 126.382 552.084 126.537L472.132 129.328C467.717 129.482 464.012 126.028 463.858 121.612L463.3 105.622Z" fill="#432DD7" fill-opacity="0.2"/>
<path d="M471.016 97.3478L471.051 98.3472L551.002 95.5555L550.967 94.5561L550.932 93.5567L470.981 96.3484L471.016 97.3478ZM559.241 102.272L558.242 102.307L558.8 118.297L559.8 118.262L560.799 118.227L560.241 102.237L559.241 102.272ZM552.084 126.537L552.049 125.537L472.097 128.329L472.132 129.328L472.167 130.328L552.118 127.536L552.084 126.537ZM463.858 121.612L464.857 121.577L464.299 105.587L463.3 105.622L462.3 105.657L462.859 121.647L463.858 121.612ZM472.132 129.328L472.097 128.329C468.234 128.464 464.992 125.441 464.857 121.577L463.858 121.612L462.859 121.647C463.032 126.615 467.2 130.501 472.167 130.328L472.132 129.328ZM559.8 118.262L558.8 118.297C558.935 122.161 555.912 125.402 552.049 125.537L552.084 126.537L552.118 127.536C557.086 127.363 560.972 123.195 560.799 118.227L559.8 118.262ZM550.967 94.5561L551.002 95.5555C554.865 95.4206 558.107 98.4433 558.242 102.307L559.241 102.272L560.241 102.237C560.067 97.2696 555.9 93.3832 550.932 93.5567L550.967 94.5561ZM471.016 97.3478L470.981 96.3484C466.013 96.5218 462.127 100.689 462.3 105.657L463.3 105.622L464.299 105.587C464.164 101.724 467.187 98.4821 471.051 98.3472L471.016 97.3478Z" fill="#432DD7" fill-opacity="0.3" mask="url(#path-14-inside-4_325_262)"/>
<mask id="path-16-inside-5_325_262" fill="white">
<path d="M68.1932 195.463C67.9619 188.84 73.1437 183.283 79.7671 183.052L549.481 166.651C556.104 166.419 561.661 171.601 561.892 178.225L563.358 220.199C563.589 226.822 558.407 232.379 551.784 232.611L82.0703 249.012C75.4469 249.243 69.8901 244.061 69.6588 237.438L68.1932 195.463Z"/>
</mask>
<path d="M68.1932 195.463C67.9619 188.84 73.1437 183.283 79.7671 183.052L549.481 166.651C556.104 166.419 561.661 171.601 561.892 178.225L563.358 220.199C563.589 226.822 558.407 232.379 551.784 232.611L82.0703 249.012C75.4469 249.243 69.8901 244.061 69.6588 237.438L68.1932 195.463Z" fill="white" fill-opacity="0.02"/>
<path d="M79.7671 183.052L79.802 184.051L549.516 167.65L549.481 166.651L549.446 165.651L79.7322 182.053L79.7671 183.052ZM561.892 178.225L560.893 178.26L562.359 220.234L563.358 220.199L564.357 220.164L562.892 178.19L561.892 178.225ZM551.784 232.611L551.749 231.611L82.0354 248.012L82.0703 249.012L82.1052 250.011L551.819 233.61L551.784 232.611ZM69.6588 237.438L70.6582 237.403L69.1926 195.428L68.1932 195.463L67.1938 195.498L68.6594 237.473L69.6588 237.438ZM82.0703 249.012L82.0354 248.012C75.9639 248.224 70.8702 243.474 70.6582 237.403L69.6588 237.438L68.6594 237.473C68.91 244.648 74.9298 250.262 82.1052 250.011L82.0703 249.012ZM563.358 220.199L562.359 220.234C562.571 226.305 557.821 231.399 551.749 231.611L551.784 232.611L551.819 233.61C558.994 233.359 564.608 227.34 564.357 220.164L563.358 220.199ZM549.481 166.651L549.516 167.65C555.587 167.438 560.681 172.188 560.893 178.26L561.892 178.225L562.892 178.19C562.641 171.014 556.621 165.401 549.446 165.651L549.481 166.651ZM79.7671 183.052L79.7322 182.053C72.5569 182.303 66.9432 188.323 67.1938 195.498L68.1932 195.463L69.1926 195.428C68.9806 189.357 73.7306 184.263 79.802 184.051L79.7671 183.052Z" fill="white" fill-opacity="0.05" mask="url(#path-16-inside-5_325_262)"/>
<path d="M85.6366 207.862C85.4824 203.447 88.937 199.742 93.3525 199.588L109.343 199.03C113.758 198.875 117.463 202.33 117.617 206.746L118.175 222.736C118.33 227.151 114.875 230.856 110.459 231.01L94.4692 231.569C90.0536 231.723 86.3491 228.268 86.1949 223.853L85.6366 207.862Z" fill="white" fill-opacity="0.05"/>
<g clip-path="url(#clip1_325_262)">
<path d="M101.789 211.969L102.115 221.296" stroke="#99A1AF" stroke-width="1.33333" stroke-linecap="round" stroke-linejoin="round"/>
<path d="M96.0494 219.508C95.8727 219.514 95.7008 219.45 95.5715 219.329C95.4422 219.208 95.366 219.041 95.3599 218.865L95.0574 210.203C95.0513 210.027 95.1156 209.855 95.2361 209.725C95.3567 209.596 95.5237 209.52 95.7004 209.514L99.0317 209.398C99.7386 209.373 100.426 209.63 100.943 210.112C101.461 210.595 101.765 211.263 101.79 211.97C101.765 211.263 102.022 210.575 102.505 210.058C102.987 209.541 103.655 209.236 104.362 209.211L107.693 209.095C107.87 209.089 108.042 209.153 108.171 209.274C108.3 209.394 108.376 209.561 108.383 209.738L108.685 218.399C108.691 218.576 108.627 218.748 108.506 218.877C108.386 219.007 108.219 219.083 108.042 219.089L104.045 219.229C103.514 219.247 103.013 219.475 102.652 219.863C102.29 220.251 102.097 220.767 102.116 221.297C102.097 220.767 101.869 220.266 101.481 219.904C101.093 219.542 100.577 219.35 100.047 219.368L96.0494 219.508Z" stroke="#99A1AF" stroke-width="1.33333" stroke-linecap="round" stroke-linejoin="round"/>
</g>
<path d="M133.538 204.189C133.461 201.981 135.188 200.129 137.396 200.052L289.303 194.748C291.511 194.671 293.363 196.398 293.441 198.606L293.58 202.603C293.657 204.811 291.93 206.663 289.722 206.74L137.815 212.045C135.607 212.122 133.755 210.394 133.678 208.187L133.538 204.189Z" fill="white" fill-opacity="0.2"/>
<path d="M134.236 224.177C134.159 221.969 135.886 220.117 138.094 220.04L226.041 216.969C228.248 216.892 230.101 218.619 230.178 220.827V220.827C230.255 223.035 228.528 224.887 226.32 224.964L138.373 228.035C136.166 228.112 134.313 226.385 134.236 224.177V224.177Z" fill="white" fill-opacity="0.1"/>
<mask id="path-23-inside-6_325_262" fill="white">
<path d="M505.66 201.202C505.429 194.578 510.611 189.022 517.234 188.79V188.79C523.857 188.559 529.414 193.741 529.645 200.364V200.364C529.877 206.988 524.695 212.544 518.071 212.776V212.776C511.448 213.007 505.891 207.825 505.66 201.202V201.202Z"/>
</mask>
<path d="M505.66 201.202C505.429 194.578 510.611 189.022 517.234 188.79V188.79C523.857 188.559 529.414 193.741 529.645 200.364V200.364C529.877 206.988 524.695 212.544 518.071 212.776V212.776C511.448 213.007 505.891 207.825 505.66 201.202V201.202Z" fill="#4A5565"/>
<path d="M505.66 201.202M529.645 200.364M529.645 200.364M505.66 201.202M517.234 188.79M529.645 200.364M518.071 212.776M505.66 201.202M518.071 212.776L518.037 211.776C511.965 211.988 506.871 207.238 506.659 201.167L505.66 201.202L504.661 201.237C504.911 208.412 510.931 214.026 518.106 213.775L518.071 212.776ZM529.645 200.364L528.646 200.399C528.858 206.47 524.108 211.564 518.037 211.776L518.071 212.776L518.106 213.775C525.282 213.524 530.895 207.505 530.645 200.329L529.645 200.364ZM517.234 188.79L517.269 189.79C523.34 189.578 528.434 194.328 528.646 200.399L529.645 200.364L530.645 200.329C530.394 193.154 524.374 187.54 517.199 187.791L517.234 188.79ZM517.234 188.79L517.199 187.791C510.024 188.041 504.41 194.061 504.661 201.237L505.66 201.202L506.659 201.167C506.447 195.095 511.197 190.002 517.269 189.79L517.234 188.79Z" fill="#0F172A" mask="url(#path-23-inside-6_325_262)"/>
<mask id="path-25-inside-7_325_262" fill="white">
<path d="M521.65 200.643C521.419 194.02 526.601 188.463 533.224 188.232V188.232C539.848 188 545.404 193.182 545.636 199.806V199.806C545.867 206.429 540.685 211.986 534.062 212.217V212.217C527.438 212.448 521.881 207.266 521.65 200.643V200.643Z"/>
</mask>
<path d="M521.65 200.643C521.419 194.02 526.601 188.463 533.224 188.232V188.232C539.848 188 545.404 193.182 545.636 199.806V199.806C545.867 206.429 540.685 211.986 534.062 212.217V212.217C527.438 212.448 521.881 207.266 521.65 200.643V200.643Z" fill="#6A7282"/>
<path d="M521.65 200.643M545.636 199.806M545.636 199.806M521.65 200.643M533.224 188.232M545.636 199.806M534.062 212.217M521.65 200.643M534.062 212.217L534.027 211.218C527.955 211.43 522.862 206.68 522.65 200.608L521.65 200.643L520.651 200.678C520.901 207.853 526.921 213.467 534.097 213.216L534.062 212.217ZM545.636 199.806L544.636 199.84C544.848 205.912 540.098 211.006 534.027 211.218L534.062 212.217L534.097 213.216C541.272 212.966 546.886 206.946 546.635 199.771L545.636 199.806ZM533.224 188.232L533.259 189.231C539.33 189.019 544.424 193.769 544.636 199.84L545.636 199.806L546.635 199.771C546.384 192.595 540.365 186.982 533.189 187.232L533.224 188.232ZM533.224 188.232L533.189 187.232C526.014 187.483 520.4 193.503 520.651 200.678L521.65 200.643L522.65 200.608C522.438 194.537 527.188 189.443 533.259 189.231L533.224 188.232Z" fill="#0F172A" mask="url(#path-25-inside-7_325_262)"/>
<mask id="path-27-inside-8_325_262" fill="white">
<path d="M70.9148 273.417C70.6836 266.793 75.8654 261.236 82.4888 261.005L552.203 244.604C558.826 244.373 564.383 249.554 564.614 256.178L566.08 298.152C566.311 304.776 561.129 310.332 554.506 310.564L84.7919 326.965C78.1686 327.196 72.6118 322.014 72.3805 315.391L70.9148 273.417Z"/>
</mask>
<path d="M70.9148 273.417C70.6836 266.793 75.8654 261.236 82.4888 261.005L552.203 244.604C558.826 244.373 564.383 249.554 564.614 256.178L566.08 298.152C566.311 304.776 561.129 310.332 554.506 310.564L84.7919 326.965C78.1686 327.196 72.6118 322.014 72.3805 315.391L70.9148 273.417Z" fill="white" fill-opacity="0.02"/>
<path d="M82.4888 261.005L82.5237 262.004L552.237 245.603L552.203 244.604L552.168 243.604L82.4539 260.006L82.4888 261.005ZM564.614 256.178L563.615 256.213L565.08 298.187L566.08 298.152L567.079 298.117L565.613 256.143L564.614 256.178ZM554.506 310.564L554.471 309.564L84.757 325.965L84.7919 326.965L84.8268 327.964L554.541 311.563L554.506 310.564ZM72.3805 315.391L73.3799 315.356L71.9142 273.382L70.9148 273.417L69.9155 273.451L71.3811 315.426L72.3805 315.391ZM84.7919 326.965L84.757 325.965C78.6856 326.177 73.5919 321.427 73.3799 315.356L72.3805 315.391L71.3811 315.426C71.6316 322.601 77.6515 328.215 84.8268 327.964L84.7919 326.965ZM566.08 298.152L565.08 298.187C565.292 304.259 560.542 309.352 554.471 309.564L554.506 310.564L554.541 311.563C561.716 311.313 567.33 305.293 567.079 298.117L566.08 298.152ZM552.203 244.604L552.237 245.603C558.309 245.391 563.403 250.141 563.615 256.213L564.614 256.178L565.613 256.143C565.363 248.968 559.343 243.354 552.168 243.604L552.203 244.604ZM82.4888 261.005L82.4539 260.006C75.2786 260.256 69.6649 266.276 69.9155 273.451L70.9148 273.417L71.9142 273.382C71.7022 267.31 76.4522 262.216 82.5237 262.004L82.4888 261.005Z" fill="white" fill-opacity="0.05" mask="url(#path-27-inside-8_325_262)"/>
<path d="M88.3583 285.815C88.2041 281.4 91.6586 277.695 96.0742 277.541L112.064 276.983C116.48 276.829 120.185 280.283 120.339 284.699L120.897 300.689C121.051 305.105 117.597 308.809 113.181 308.963L97.1909 309.522C92.7753 309.676 89.0708 306.221 88.9166 301.806L88.3583 285.815Z" fill="white" fill-opacity="0.05"/>
<g clip-path="url(#clip2_325_262)">
<path d="M104.512 289.922L104.837 299.25" stroke="#99A1AF" stroke-width="1.33333" stroke-linecap="round" stroke-linejoin="round"/>
<path d="M98.7711 297.461C98.5944 297.467 98.4225 297.403 98.2932 297.282C98.1638 297.162 98.0877 296.995 98.0816 296.818L97.7791 288.156C97.773 287.98 97.8372 287.808 97.9578 287.679C98.0784 287.549 98.2454 287.473 98.4221 287.467L101.753 287.351C102.46 287.326 103.148 287.583 103.665 288.065C104.182 288.548 104.487 289.216 104.512 289.923C104.487 289.216 104.744 288.528 105.226 288.011C105.709 287.494 106.377 287.189 107.084 287.165L110.415 287.048C110.592 287.042 110.763 287.106 110.893 287.227C111.022 287.347 111.098 287.515 111.104 287.691L111.407 296.353C111.413 296.529 111.349 296.701 111.228 296.831C111.107 296.96 110.94 297.036 110.764 297.042L106.766 297.182C106.236 297.2 105.735 297.429 105.373 297.816C105.012 298.204 104.819 298.72 104.837 299.25C104.819 298.72 104.59 298.219 104.202 297.857C103.815 297.496 103.299 297.303 102.769 297.321L98.7711 297.461Z" stroke="#99A1AF" stroke-width="1.33333" stroke-linecap="round" stroke-linejoin="round"/>
</g>
<path d="M136.26 282.142C136.183 279.934 137.91 278.082 140.118 278.005L292.025 272.701C294.233 272.624 296.085 274.351 296.162 276.559L296.302 280.556C296.379 282.764 294.652 284.616 292.444 284.693L140.536 289.998C138.329 290.075 136.476 288.347 136.399 286.14L136.26 282.142Z" fill="white" fill-opacity="0.2"/>
<path d="M136.958 302.13C136.881 299.923 138.608 298.07 140.816 297.993L228.762 294.922C230.97 294.845 232.822 296.573 232.899 298.78V298.78C232.977 300.988 231.249 302.84 229.041 302.917L141.095 305.988C138.887 306.065 137.035 304.338 136.958 302.13V302.13Z" fill="white" fill-opacity="0.1"/>
<mask id="path-34-inside-9_325_262" fill="white">
<path d="M508.382 279.155C508.15 272.531 513.332 266.975 519.956 266.743V266.743C526.579 266.512 532.136 271.694 532.367 278.317V278.317C532.598 284.941 527.416 290.497 520.793 290.729V290.729C514.17 290.96 508.613 285.778 508.382 279.155V279.155Z"/>
</mask>
<path d="M508.382 279.155C508.15 272.531 513.332 266.975 519.956 266.743V266.743C526.579 266.512 532.136 271.694 532.367 278.317V278.317C532.598 284.941 527.416 290.497 520.793 290.729V290.729C514.17 290.96 508.613 285.778 508.382 279.155V279.155Z" fill="#4A5565"/>
<path d="M508.382 279.155M532.367 278.317M532.367 278.317M508.382 279.155M519.956 266.743M532.367 278.317M520.793 290.729M508.382 279.155M520.793 290.729L520.758 289.729C514.687 289.941 509.593 285.191 509.381 279.12L508.382 279.155L507.382 279.19C507.633 286.365 513.653 291.979 520.828 291.728L520.793 290.729ZM532.367 278.317L531.368 278.352C531.58 284.424 526.83 289.517 520.758 289.729L520.793 290.729L520.828 291.728C528.003 291.478 533.617 285.458 533.366 278.282L532.367 278.317ZM519.956 266.743L519.99 267.743C526.062 267.531 531.156 272.281 531.368 278.352L532.367 278.317L533.366 278.282C533.116 271.107 527.096 265.493 519.921 265.744L519.956 266.743ZM519.956 266.743L519.921 265.744C512.745 265.995 507.132 272.014 507.382 279.19L508.382 279.155L509.381 279.12C509.169 273.048 513.919 267.955 519.99 267.743L519.956 266.743Z" fill="#0F172A" mask="url(#path-34-inside-9_325_262)"/>
<mask id="path-36-inside-10_325_262" fill="white">
<path d="M524.372 278.596C524.141 271.973 529.322 266.416 535.946 266.185V266.185C542.569 265.953 548.126 271.135 548.357 277.759V277.759C548.589 284.382 543.407 289.939 536.783 290.17V290.17C530.16 290.401 524.603 285.22 524.372 278.596V278.596Z"/>
</mask>
<path d="M524.372 278.596C524.141 271.973 529.322 266.416 535.946 266.185V266.185C542.569 265.953 548.126 271.135 548.357 277.759V277.759C548.589 284.382 543.407 289.939 536.783 290.17V290.17C530.16 290.401 524.603 285.22 524.372 278.596V278.596Z" fill="#6A7282"/>
<path d="M524.372 278.596M548.357 277.759M548.357 277.759M524.372 278.596M535.946 266.185M548.357 277.759M536.783 290.17M524.372 278.596M536.783 290.17L536.748 289.171C530.677 289.383 525.583 284.633 525.371 278.561L524.372 278.596L523.372 278.631C523.623 285.806 529.643 291.42 536.818 291.17L536.783 290.17ZM548.357 277.759L547.358 277.794C547.57 283.865 542.82 288.959 536.748 289.171L536.783 290.17L536.818 291.17C543.994 290.919 549.607 284.899 549.357 277.724L548.357 277.759ZM535.946 266.185L535.981 267.184C542.052 266.972 547.146 271.722 547.358 277.794L548.357 277.759L549.357 277.724C549.106 270.548 543.086 264.935 535.911 265.185L535.946 266.185ZM535.946 266.185L535.911 265.185C528.736 265.436 523.122 271.456 523.372 278.631L524.372 278.596L525.371 278.561C525.159 272.49 529.909 267.396 535.981 267.184L535.946 266.185Z" fill="#0F172A" mask="url(#path-36-inside-10_325_262)"/>
<mask id="path-38-inside-11_325_262" fill="white">
<path d="M73.6365 351.368C73.4053 344.744 78.5871 339.188 85.2105 338.956L554.924 322.555C561.548 322.324 567.104 327.506 567.336 334.129L568.801 376.103C569.033 382.727 563.851 388.284 557.227 388.515L87.5136 404.916C80.8902 405.147 75.3334 399.965 75.1022 393.342L73.6365 351.368Z"/>
</mask>
<path d="M73.6365 351.368C73.4053 344.744 78.5871 339.188 85.2105 338.956L554.924 322.555C561.548 322.324 567.104 327.506 567.336 334.129L568.801 376.103C569.033 382.727 563.851 388.284 557.227 388.515L87.5136 404.916C80.8902 405.147 75.3334 399.965 75.1022 393.342L73.6365 351.368Z" fill="white" fill-opacity="0.02"/>
<path d="M85.2105 338.956L85.2454 339.956L554.959 323.554L554.924 322.555L554.889 321.556L85.1756 337.957L85.2105 338.956ZM567.336 334.129L566.336 334.164L567.802 376.138L568.801 376.103L569.801 376.069L568.335 334.094L567.336 334.129ZM557.227 388.515L557.192 387.515L87.4787 403.917L87.5136 404.916L87.5485 405.915L557.262 389.514L557.227 388.515ZM75.1022 393.342L76.1016 393.307L74.6359 351.333L73.6365 351.368L72.6371 351.403L74.1028 393.377L75.1022 393.342ZM87.5136 404.916L87.4787 403.917C81.4073 404.129 76.3136 399.379 76.1016 393.307L75.1022 393.342L74.1028 393.377C74.3533 400.552 80.3732 406.166 87.5485 405.915L87.5136 404.916ZM568.801 376.103L567.802 376.138C568.014 382.21 563.264 387.303 557.192 387.515L557.227 388.515L557.262 389.514C564.438 389.264 570.051 383.244 569.801 376.069L568.801 376.103ZM554.924 322.555L554.959 323.554C561.031 323.342 566.124 328.092 566.336 334.164L567.336 334.129L568.335 334.094C568.085 326.919 562.065 321.305 554.889 321.556L554.924 322.555ZM85.2105 338.956L85.1756 337.957C78.0002 338.207 72.3866 344.227 72.6371 351.403L73.6365 351.368L74.6359 351.333C74.4239 345.261 79.1739 340.168 85.2454 339.956L85.2105 338.956Z" fill="white" fill-opacity="0.05" mask="url(#path-38-inside-11_325_262)"/>
<path d="M91.08 363.767C90.9258 359.351 94.3803 355.646 98.7959 355.492L114.786 354.934C119.202 354.78 122.906 358.234 123.06 362.65L123.619 378.64C123.773 383.056 120.318 386.76 115.903 386.914L99.9126 387.473C95.497 387.627 91.7925 384.172 91.6383 379.757L91.08 363.767Z" fill="white" fill-opacity="0.05"/>
<g clip-path="url(#clip3_325_262)">
<path d="M107.233 367.873L107.559 377.201" stroke="#99A1AF" stroke-width="1.33333" stroke-linecap="round" stroke-linejoin="round"/>
<path d="M101.493 375.412C101.316 375.418 101.144 375.354 101.015 375.233C100.886 375.113 100.809 374.946 100.803 374.769L100.501 366.108C100.495 365.931 100.559 365.759 100.679 365.63C100.8 365.5 100.967 365.424 101.144 365.418L104.475 365.302C105.182 365.277 105.87 365.534 106.387 366.017C106.904 366.499 107.209 367.167 107.233 367.874C107.209 367.167 107.466 366.479 107.948 365.962C108.43 365.445 109.098 365.14 109.805 365.116L113.136 364.999C113.313 364.993 113.485 365.057 113.614 365.178C113.744 365.299 113.82 365.466 113.826 365.642L114.128 374.304C114.135 374.48 114.07 374.652 113.95 374.782C113.829 374.911 113.662 374.987 113.485 374.993L109.488 375.133C108.958 375.151 108.457 375.38 108.095 375.768C107.733 376.156 107.54 376.671 107.559 377.201C107.54 376.671 107.312 376.17 106.924 375.809C106.536 375.447 106.02 375.254 105.49 375.272L101.493 375.412Z" stroke="#99A1AF" stroke-width="1.33333" stroke-linecap="round" stroke-linejoin="round"/>
</g>
<path d="M138.981 360.093C138.904 357.885 140.632 356.033 142.839 355.956L294.747 350.652C296.955 350.575 298.807 352.302 298.884 354.51L299.024 358.507C299.101 360.715 297.373 362.567 295.166 362.645L143.258 367.949C141.05 368.026 139.198 366.299 139.121 364.091L138.981 360.093Z" fill="white" fill-opacity="0.2"/>
<path d="M139.68 380.082C139.603 377.874 141.33 376.021 143.538 375.944L231.484 372.874C233.692 372.796 235.544 374.524 235.621 376.732V376.732C235.698 378.939 233.971 380.792 231.763 380.869L143.817 383.94C141.609 384.017 139.757 382.289 139.68 380.082V380.082Z" fill="white" fill-opacity="0.1"/>
<mask id="path-45-inside-12_325_262" fill="white">
<path d="M511.103 357.106C510.872 350.483 516.054 344.926 522.677 344.695V344.695C529.301 344.463 534.857 349.645 535.089 356.268V356.268C535.32 362.892 530.138 368.449 523.515 368.68V368.68C516.891 368.911 511.335 363.729 511.103 357.106V357.106Z"/>
</mask>
<path d="M511.103 357.106C510.872 350.483 516.054 344.926 522.677 344.695V344.695C529.301 344.463 534.857 349.645 535.089 356.268V356.268C535.32 362.892 530.138 368.449 523.515 368.68V368.68C516.891 368.911 511.335 363.729 511.103 357.106V357.106Z" fill="#4A5565"/>
<path d="M511.103 357.106M535.089 356.268M535.089 356.268M511.103 357.106M522.677 344.695M535.089 356.268M523.515 368.68M511.103 357.106M523.515 368.68L523.48 367.681C517.408 367.893 512.315 363.143 512.103 357.071L511.103 357.106L510.104 357.141C510.354 364.316 516.374 369.93 523.55 369.679L523.515 368.68ZM535.089 356.268L534.089 356.303C534.301 362.375 529.551 367.469 523.48 367.681L523.515 368.68L523.55 369.679C530.725 369.429 536.339 363.409 536.088 356.234L535.089 356.268ZM522.677 344.695L522.712 345.694C528.784 345.482 533.877 350.232 534.089 356.303L535.089 356.268L536.088 356.234C535.838 349.058 529.818 343.445 522.642 343.695L522.677 344.695ZM522.677 344.695L522.642 343.695C515.467 343.946 509.853 349.966 510.104 357.141L511.103 357.106L512.103 357.071C511.891 351 516.641 345.906 522.712 345.694L522.677 344.695Z" fill="#0F172A" mask="url(#path-45-inside-12_325_262)"/>
<mask id="path-47-inside-13_325_262" fill="white">
<path d="M527.094 356.547C526.862 349.924 532.044 344.367 538.667 344.136V344.136C545.291 343.905 550.848 349.086 551.079 355.71V355.71C551.31 362.333 546.128 367.89 539.505 368.121V368.121C532.882 368.353 527.325 363.171 527.094 356.547V356.547Z"/>
</mask>
<path d="M527.094 356.547C526.862 349.924 532.044 344.367 538.667 344.136V344.136C545.291 343.905 550.848 349.086 551.079 355.71V355.71C551.31 362.333 546.128 367.89 539.505 368.121V368.121C532.882 368.353 527.325 363.171 527.094 356.547V356.547Z" fill="#6A7282"/>
<path d="M527.094 356.547M551.079 355.71M551.079 355.71M527.094 356.547M538.667 344.136M551.079 355.71M539.505 368.121M527.094 356.547M539.505 368.121L539.47 367.122C533.399 367.334 528.305 362.584 528.093 356.512L527.094 356.547L526.094 356.582C526.345 363.758 532.365 369.371 539.54 369.121L539.505 368.121ZM551.079 355.71L550.08 355.745C550.292 361.816 545.542 366.91 539.47 367.122L539.505 368.121L539.54 369.121C546.715 368.87 552.329 362.85 552.078 355.675L551.079 355.71ZM538.667 344.136L538.702 345.135C544.774 344.923 549.868 349.673 550.08 355.745L551.079 355.71L552.078 355.675C551.828 348.5 545.808 342.886 538.633 343.137L538.667 344.136ZM538.667 344.136L538.633 343.137C531.457 343.387 525.844 349.407 526.094 356.582L527.094 356.547L528.093 356.512C527.881 350.441 532.631 345.347 538.702 345.135L538.667 344.136Z" fill="#0F172A" mask="url(#path-47-inside-13_325_262)"/>
</g>
<path d="M53.4414 30.8772L53.4763 31.8766L565.164 14.0098L565.13 13.0104L565.095 12.011L53.4065 29.8778L53.4414 30.8772ZM581.678 28.4423L580.679 28.4772L593.521 396.253L594.52 396.218L595.519 396.183L582.678 28.4074L581.678 28.4423ZM579.088 412.767L579.053 411.767L67.365 429.634L67.3999 430.634L67.4348 431.633L579.123 413.766L579.088 412.767ZM50.8513 415.202L51.8507 415.167L39.0089 47.3909L38.0095 47.4258L37.0101 47.4607L49.8519 415.237L50.8513 415.202ZM67.3999 430.634L67.365 429.634C59.0858 429.923 52.1398 423.446 51.8507 415.167L50.8513 415.202L49.8519 415.237C50.1796 424.62 58.0517 431.961 67.4348 431.633L67.3999 430.634ZM594.52 396.218L593.521 396.253C593.81 404.532 587.332 411.478 579.053 411.767L579.088 412.767L579.123 413.766C588.506 413.439 595.847 405.566 595.519 396.183L594.52 396.218ZM565.13 13.0104L565.164 14.0098C573.444 13.7207 580.39 20.1979 580.679 28.4772L581.678 28.4423L582.678 28.4074C582.35 19.0243 574.478 11.6833 565.095 12.011L565.13 13.0104ZM53.4414 30.8772L53.4065 29.8778C44.0234 30.2055 36.6825 38.0776 37.0101 47.4607L38.0095 47.4258L39.0089 47.3909C38.7198 39.1117 45.1971 32.1657 53.4763 31.8766L53.4414 30.8772Z" fill="white" fill-opacity="0.1" mask="url(#path-1-inside-1_325_262)"/>
</g>
<defs>
<filter id="filter0_d_325_262" x="-0.548828" y="-0.548828" width="633.627" height="494.74" filterUnits="userSpaceOnUse" color-interpolation-filters="sRGB">
<feFlood flood-opacity="0" result="BackgroundImageFix"/>
<feColorMatrix in="SourceAlpha" type="matrix" values="0 0 0 0 0 0 0 0 0 0 0 0 0 0 0 0 0 0 127 0" result="hardAlpha"/>
<feMorphology radius="12" operator="erode" in="SourceAlpha" result="effect1_dropShadow_325_262"/>
<feOffset dy="25"/>
<feGaussianBlur stdDeviation="25"/>
<feComposite in2="hardAlpha" operator="out"/>
<feColorMatrix type="matrix" values="0 0 0 0 0 0 0 0 0 0 0 0 0 0 0 0 0 0 0.25 0"/>
<feBlend mode="normal" in2="BackgroundImageFix" result="effect1_dropShadow_325_262"/>
<feBlend mode="normal" in="SourceGraphic" in2="effect1_dropShadow_325_262" result="shape"/>
</filter>
<clipPath id="clip0_325_262">
<path d="M38.0095 47.4258C37.7011 38.5946 44.6103 31.1856 53.4414 30.8772L565.13 13.0104C573.961 12.702 581.37 19.6111 581.678 28.4423L594.52 396.218C594.828 405.049 587.919 412.458 579.088 412.767L67.3999 430.634C58.5687 430.942 51.1597 424.033 50.8513 415.202L38.0095 47.4258Z" fill="white"/>
</clipPath>
<clipPath id="clip1_325_262">
<rect width="16" height="16" fill="white" transform="translate(93.6318 207.584) rotate(-1.99981)"/>
</clipPath>
<clipPath id="clip2_325_262">
<rect width="16" height="16" fill="white" transform="translate(96.3535 285.537) rotate(-1.99981)"/>
</clipPath>
<clipPath id="clip3_325_262">
<rect width="16" height="16" fill="white" transform="translate(99.0752 363.488) rotate(-1.99981)"/>
</clipPath>
</defs>
</svg>